<?xml version="1.0" encoding="utf-8"?>
<!-- Generator: Adobe Illustrator 21.0.0, SVG Export Plug-In . SVG Version: 6.00 Build 0)  -->
<svg version="1.1" id="Capa_1" xmlns="http://www.w3.org/2000/svg" xmlns:xlink="http://www.w3.org/1999/xlink" x="0px" y="0px"
	 viewBox="0 0 94.6 94.6" style="enable-background:new 0 0 94.6 94.6;" xml:space="preserve">
<style type="text/css">
	.st0{fill:#FFFFFF;}
</style>
<g>
	<g>
		<rect x="2.9" y="20.9" class="st0" width="28.7" height="19.7"/>
		<rect x="2.9" y="47.4" class="st0" width="28.7" height="19.7"/>
		<rect x="2.9" y="74.9" class="st0" width="28.7" height="19.7"/>
		<rect x="38.5" y="74.9" class="st0" width="28.7" height="19.7"/>
		<path class="st0" d="M85.6,20l6-6l-14-14l-11,11l0,0l-9.8,9.8H38.5v19.7h3.8l-2.1,6.9h-1.7v19.7h28.7V47.4h-9.5l0.8-0.2l6.7-6.7
			h2.1v-2.1L85.6,20L85.6,20z M55.7,43.1L45.4,46l3.2-10.2l22.9-22.9l7.2,7.2L55.7,43.1z M80.4,18.4l-7.2-7.2l4.3-4.3l7.2,7.2
			L80.4,18.4z"/>
	</g>
</g>
</svg>
