<?xml version="1.0" encoding="utf-8"?>
<!-- Generator: Adobe Illustrator 22.0.0, SVG Export Plug-In . SVG Version: 6.00 Build 0)  -->
<svg version="1.1" id="Capa_1" xmlns="http://www.w3.org/2000/svg" xmlns:xlink="http://www.w3.org/1999/xlink" x="0px" y="0px"
	 viewBox="0 0 512 512" style="enable-background:new 0 0 512 512;" xml:space="preserve">
<style type="text/css">
	.st0{fill:#45B4AB;}
</style>
<g>
	<g>
		<g>
			<path class="st0" d="M508.4,269.4C504.2,264.5,402,149,274,149S43.8,264.5,39.5,269.4c-4.7,5.5-4.7,13.8,0,19.3
				C43.8,293.5,146,409,274,409s230.1-115.5,234.4-120.4C513.2,283.1,513.2,274.9,508.4,269.4z M274,380.1
				c-53.8,0-97.6-45.4-97.6-101.1s43.8-101.1,97.6-101.1s97.6,45.4,97.6,101.1S327.8,380.1,274,380.1z"/>
		</g>
	</g>
	<g>
		<g>
			<path class="st0" d="M287.9,250.1c0-14.5,7-27.3,17.6-35.2c-9.5-5-20.1-8.2-31.5-8.2c-38.4,0-69.7,32.4-69.7,72.2
				s31.3,72.2,69.7,72.2c34.5,0,62.9-26,68.5-60C314.5,300.5,287.9,278.5,287.9,250.1z"/>
		</g>
	</g>
</g>
</svg>
