<?xml version="1.0" encoding="utf-8"?>
<!-- Generator: Adobe Illustrator 21.0.0, SVG Export Plug-In . SVG Version: 6.00 Build 0)  -->
<svg version="1.1" id="Layer_1" xmlns="http://www.w3.org/2000/svg" xmlns:xlink="http://www.w3.org/1999/xlink" x="0px" y="0px"
	 viewBox="0 0 512 512" style="enable-background:new 0 0 512 512;" xml:space="preserve">
<style type="text/css">
	.st0{fill:#95A4B6;}
	.st1{fill:#FFFFFF;}
	.st2{fill:#B9C2CF;}
	.st3{fill:#DCE1E7;}
</style>
<path class="st0" d="M122,438h320v16H122V438z"/>
<path class="st1" d="M70,426V58h320v448H150L70,426z"/>
<path class="st2" d="M118,314h224v16H118V314z"/>
<path class="st1" d="M206,217.4l64.6,40.6L206,298.6V217.4z"/>
<path class="st3" d="M150,490h240v16H150V490z"/>
<g>
	<path class="st1" d="M118,116h160v12H118V116z"/>
	<g>
		<path class="st1" d="M116,0v52H64v376.5l83.5,83.5H396v-52h52V0H116z M144,491.5L84.5,432H144V491.5z M384,500H156v-80H76V64h308
			V500z M436,448h-40V52H128V12h308V448z"/>
		<rect x="118" y="148" class="st1" width="128" height="12"/>
	</g>
	<path class="st1" d="M118,356h224v12H118V356z"/>
	<path class="st1" d="M118,388h224v12H118V388z"/>
	<path class="st1" d="M182,420h160v12H182V420z"/>
	<path class="st1" d="M348,180H112v156h236V180z"/>
	<path class="st1" d="M200,206.6v102.8l81.8-51.4L200,206.6z M212,228.3l47.3,29.7L212,287.7V228.3z"/>
</g>
</svg>
