<?xml version="1.0"?>
<svg xmlns="http://www.w3.org/2000/svg" id="Capa_1" enable-background="new 0 0 510.5 510.5" height="512px" viewBox="0 0 510.5 510.5" width="512px"><g><g id="XMLID_1072_"><path id="XMLID_980_" d="m0 509.25h385v-508h-385zm74.904-103h71.096v30h-71.096zm-2.904-294v-30h120.5v30zm2.904 262v-30h235.192v30zm0-62v-30h235.192v30zm0-62v-30h235.192v30zm0-62v-30h235.192v30z" data-original="#000000" class="active-path" data-old_color="#000000" fill="#FFFFFF"/><path id="XMLID_1073_" d="m438.5 108.933h72v271.767h-72z" data-original="#000000" class="active-path" data-old_color="#000000" fill="#FFFFFF"/><path id="XMLID_1076_" d="m474.5 485.383 29.979-74.684h-59.958z" data-original="#000000" class="active-path" data-old_color="#000000" fill="#FFFFFF"/><path id="XMLID_1077_" d="m510.5 67.75c0-19.851-16.149-36-36-36s-36 16.149-36 36v11.183h72z" data-original="#000000" class="active-path" data-old_color="#000000" fill="#FFFFFF"/></g></g> </svg>
