<?xml version="1.0" encoding="utf-8"?>
<!-- Generator: Adobe Illustrator 21.0.0, SVG Export Plug-In . SVG Version: 6.00 Build 0)  -->
<svg version="1.1" id="Capa_1" xmlns="http://www.w3.org/2000/svg" xmlns:xlink="http://www.w3.org/1999/xlink" x="0px" y="0px"
	 viewBox="0 0 93.8 93.8" style="enable-background:new 0 0 93.8 93.8;" xml:space="preserve">
<style type="text/css">
	.st0{fill:#FFFFFF;}
</style>
<g>
	<g>
		<rect x="49.2" y="49.8" class="st0" width="23.5" height="4.5"/>
		<rect x="49.2" y="60" class="st0" width="23.6" height="4.5"/>
		<rect x="49.2" y="70.6" class="st0" width="23.6" height="4.5"/>
		<path class="st0" d="M71.2,32.2V14.6c0-2-1.6-3.7-3.7-3.7h-9.8V9.8c0-1.4-1.2-2.6-2.6-2.6h-6.7V2.6C48.5,1.2,47.4,0,46,0h-9
			c-1.4,0-2.6,1.2-2.6,2.6v4.6h-6.7c-1.4,0-2.6,1.2-2.6,2.6V11h-9.8c-2,0-3.7,1.6-3.7,3.7v71.1c0,2,1.6,3.7,3.7,3.7h23.6v4.4h43.3
			V32.2H71.2z M38.9,83.8H17.4c-0.3,0-0.5-0.2-0.5-0.5V17.6c0-0.3,0.2-0.5,0.5-0.5h7.8v3.8c0,1.4,1.1,2.5,2.5,2.5h27.6
			c1.4,0,2.5-1.1,2.5-2.5v-3.8h7.8c0.3,0,0.5,0.2,0.5,0.5v14.6H38.9V83.8z M77,88.6H44.1V37.4H77L77,88.6C77,88.6,77,88.6,77,88.6z"
			/>
	</g>
</g>
</svg>
