<?xml version="1.0" encoding="utf-8"?>
<!-- Generator: Adobe Illustrator 21.0.0, SVG Export Plug-In . SVG Version: 6.00 Build 0)  -->
<svg version="1.1" id="Capa_1" xmlns="http://www.w3.org/2000/svg" xmlns:xlink="http://www.w3.org/1999/xlink" x="0px" y="0px"
	 viewBox="0 0 94.3 94.3" style="enable-background:new 0 0 94.3 94.3;" xml:space="preserve">
<style type="text/css">
	.st0{fill:#FFFFFF;}
</style>
<g>
	<g id="Layer_1_16_">
		<g>
			<g>
				<g>
					<path class="st0" d="M36.5,26.2c1,0,1.9,0,2.8-0.1c0.5-6.6,10.9-10.5,22.7-11.5V9.3C62,4.2,50.6,0,36.5,0S11,4.2,11,9.3v7.6
						C11,22.1,22.4,26.2,36.5,26.2z"/>
				</g>
			</g>
			<path class="st0" d="M11,22.1l0,8.5c3.5-0.8,7.4-1.3,11.3-1.5C16,27.6,11.6,25,11,22.1z"/>
			<g>
				<g>
					<path class="st0" d="M68.4,18c-14.1,0-25.5,4.2-25.5,9.3v4c3.1,0.9,5.9,2.2,7.9,3.7l0.2,0.1c2.5,1.9,4,4.3,4,7.1v0.5
						c3.9,0.9,8.5,1.4,13.5,1.4c14.1,0,25.5-4.2,25.5-9.3v-7.6C93.9,22.2,82.5,18,68.4,18z"/>
				</g>
			</g>
			<path class="st0" d="M93.9,40.1c-1,4.8-12.1,8.6-25.5,8.6c-4.9,0-9.6-0.5-13.5-1.4v13.3c3.9,0.9,8.5,1.4,13.5,1.4
				c14.1,0,25.5-4.2,25.5-9.3C93.9,52.7,93.9,40.3,93.9,40.1z"/>
			<path class="st0" d="M93.9,58c-1,4.8-12.1,8.6-25.5,8.6c-4.9,0-9.6-0.5-13.5-1.4v13.3c3.9,0.9,8.5,1.4,13.5,1.4
				c14.1,0,25.5-4.2,25.5-9.3C93.9,70.6,93.9,58.3,93.9,58z"/>
			<g>
				<g>
					<path class="st0" d="M25.9,32.4c-14.1,0-25.5,4.2-25.5,9.3v7.6c0,5.1,11.4,9.3,25.5,9.3c14.1,0,25.5-4.2,25.5-9.3v-7.6
						C51.4,36.5,40,32.4,25.9,32.4z"/>
				</g>
			</g>
			<g>
				<g>
					<path class="st0" d="M25.9,63c-13.4,0-24.5-3.8-25.5-8.6c0,0.2,0,12.6,0,12.6c0,5.1,11.4,9.3,25.5,9.3
						c14.1,0,25.5-4.2,25.5-9.3c0,0,0-12.4,0-12.6C50.4,59.2,39.3,63,25.9,63z"/>
				</g>
			</g>
			<g>
				<g>
					<path class="st0" d="M25.9,81c-13.4,0-24.5-3.8-25.5-8.6l0,12.6c0,5.1,11.4,9.3,25.5,9.3c14.1,0,25.5-4.2,25.5-9.3
						c0,0,0-12.4,0-12.6C50.4,77.2,39.3,81,25.9,81z"/>
				</g>
			</g>
		</g>
	</g>
</g>
</svg>
