<?xml version="1.0" encoding="utf-8"?>
<!-- Generator: Adobe Illustrator 21.0.0, SVG Export Plug-In . SVG Version: 6.00 Build 0)  -->
<svg version="1.1" id="Layer_1" xmlns="http://www.w3.org/2000/svg" xmlns:xlink="http://www.w3.org/1999/xlink" x="0px" y="0px"
	 viewBox="0 0 512 512" style="enable-background:new 0 0 512 512;" xml:space="preserve">
<style type="text/css">
	.st0{fill:#FFFFFF;}
</style>
<path class="st0" d="M439.4,465.6l-26-294.4c-2-22.2-20.2-38.9-42.5-38.9c-5.1,0-9.3,4.2-9.3,9.3v45.9c0,4.5-3.4,8.5-8,8.8
	c-5,0.3-9.1-3.6-9.1-8.5V88.5C344.5,39.7,304.8,0,256,0s-88.5,39.7-88.5,88.5v43.7h-26.3c-22.3,0-40.5,16.7-42.5,38.9l-26,294.4
	c-2.2,24.9,17.4,46.4,42.5,46.4h281.7C421.9,512,441.5,490.5,439.4,465.6z M206.9,455.5h-61.9c-4.7,0-8.5-3.8-8.5-8.5
	s3.8-8.5,8.5-8.5h61.9c4.7,0,8.5,3.8,8.5,8.5S211.6,455.5,206.9,455.5z M206.9,412.8h-61.9c-4.7,0-8.5-3.8-8.5-8.5
	c0-4.7,3.8-8.5,8.5-8.5h61.9c4.7,0,8.5,3.8,8.5,8.5C215.5,409,211.6,412.8,206.9,412.8z M327.5,132.3H210.9c-5.1,0-9.3,4.2-9.3,9.3
	v45.9c0,4.5-3.4,8.5-8,8.8c-5,0.3-9.1-3.6-9.1-8.5V88.5c0-39.4,32.1-71.5,71.5-71.5s71.5,32.1,71.5,71.5V132.3z"/>
</svg>
