<?xml version="1.0" encoding="utf-8"?>
<!-- Generator: Adobe Illustrator 21.0.0, SVG Export Plug-In . SVG Version: 6.00 Build 0)  -->
<svg version="1.1" id="Capa_1" xmlns="http://www.w3.org/2000/svg" xmlns:xlink="http://www.w3.org/1999/xlink" x="0px" y="0px"
	 viewBox="0 0 94.6 94.6" style="enable-background:new 0 0 94.6 94.6;" xml:space="preserve">
<style type="text/css">
	.st0{fill:#FFFFFF;}
</style>
<g>
	<g>
		<g id="account-circle">
			<path class="st0" d="M47.3,0C21.3,0,0,21.3,0,47.3s21.3,47.3,47.3,47.3s47.3-21.3,47.3-47.3S73.3,0,47.3,0z M47.3,14.2
				c8,0,14.2,6.1,14.2,14.2s-6.1,14.2-14.2,14.2s-14.2-6.1-14.2-14.2S39.3,14.2,47.3,14.2z M47.3,81.4c-11.8,0-22.2-6.1-28.4-15.1
				c0-9.5,18.9-14.7,28.4-14.7s28.4,5.2,28.4,14.7C69.5,75.2,59.1,81.4,47.3,81.4z"/>
		</g>
	</g>
</g>
</svg>
