<?xml version="1.0" encoding="iso-8859-1"?>
<!-- Generator: Adobe Illustrator 19.0.0, SVG Export Plug-In . SVG Version: 6.00 Build 0)  -->
<svg version="1.1" id="Layer_1" xmlns="http://www.w3.org/2000/svg" xmlns:xlink="http://www.w3.org/1999/xlink" x="0px" y="0px"
	 viewBox="0 0 512 512" style="enable-background:new 0 0 512 512;" xml:space="preserve">
<rect x="30.376" y="213.342" style="fill:#54A6E2;" width="451.253" height="250.038"/>
<rect x="30.376" y="228.994" style="fill:#4494C6;" width="451.253" height="28.232"/>
<rect x="30.376" y="40.169" style="fill:#54A6E2;" width="451.253" height="128.164"/>
<rect x="61.432" y="67.247" style="fill:#FEC95B;" width="389.14" height="53.655"/>
<polygon style="fill:#D6E0EA;" points="512,228.993 0,228.993 30.376,147.981 481.625,147.981 "/>
<g>
	<polyline style="fill:#FD5D65;" points="67.98,147.981 42.667,228.993 1.7,228.993 29.831,148.082 	"/>
	<polyline style="fill:#FD5D65;" points="143.187,147.981 128,228.993 85.333,228.993 105.584,147.981 	"/>
	<polyline style="fill:#FD5D65;" points="218.396,147.981 213.333,228.993 170.667,228.993 180.792,147.981 	"/>
	<polyline style="fill:#FD5D65;" points="293.604,147.981 298.667,228.993 256,228.993 256,147.981 	"/>
	<polyline style="fill:#FD5D65;" points="368.813,147.981 384,228.993 341.333,228.993 331.208,147.981 	"/>
	<polyline style="fill:#FD5D65;" points="444.021,147.981 469.333,228.993 426.667,228.993 406.417,147.981 	"/>
</g>
<g>
	<polyline style="fill:#4090C1;" points="422.887,321.476 422.887,346.123 346.346,346.123 346.346,321.476 	"/>
	<polyline style="fill:#4090C1;" points="422.887,425.341 422.887,463.388 346.346,463.388 346.346,425.341 	"/>
</g>
<g>
	<path style="fill:#4494C6;" d="M422.887,469.013h-76.541c-3.108,0-5.626-2.518-5.626-5.626V315.85h11.252v141.909h65.288V315.85
		h11.252v147.535C428.513,466.493,425.995,469.013,422.887,469.013z"/>
	<path style="fill:#4494C6;" d="M422.887,426.821h-76.546c-3.108,0-5.626-2.518-5.626-5.626v-75.977
		c0-3.108,2.518-5.626,5.626-5.626h76.546c3.108,0,5.626,2.518,5.626,5.626v75.977C428.513,424.301,425.995,426.821,422.887,426.821
		z M351.967,415.568h65.294v-64.725h-65.294V415.568z"/>
</g>
<polygon style="fill:#83CDEA;" points="428.862,275.235 340.366,275.235 325.616,321.475 443.61,321.475 "/>
<rect x="85.135" y="321.477" style="fill:#CDEFF7;" width="183.368" height="97.265"/>
<rect x="85.135" y="321.477" style="fill:#BADDE2;" width="183.368" height="29.148"/>
<path style="fill:#4494C6;" d="M274.134,424.368H79.511V315.85h194.623L274.134,424.368L274.134,424.368z M90.764,413.115h172.118
	v-86.013H90.764V413.115z"/>
<rect x="1.147" y="454.953" style="fill:#515C6D;" width="509.709" height="16.879"/>
<polygon style="fill:#83CDEA;" points="272.344,272.983 81.3,272.983 66.551,319.224 287.094,319.224 "/>
<rect x="350.061" y="339.369" style="fill:#CDEFF7;" width="69.101" height="75.976"/>
<g>
</g>
<g>
</g>
<g>
</g>
<g>
</g>
<g>
</g>
<g>
</g>
<g>
</g>
<g>
</g>
<g>
</g>
<g>
</g>
<g>
</g>
<g>
</g>
<g>
</g>
<g>
</g>
<g>
</g>
</svg>
