<svg id="Layer_5" enable-background="new 0 0 64 64" height="512" viewBox="0 0 64 64" width="512" xmlns="http://www.w3.org/2000/svg"><g><g><g><path d="m36 3v2c0 .55-.45 1-1 1h-1-26-1c-.55 0-1-.45-1-1v-2c0-.55.45-1 1-1h28c.55 0 1 .45 1 1z" fill="#dfb28b"/></g><g><path d="m8 6v32.45c.87-.29 1.8-.45 2.77-.45h23.23v-32z" fill="#ecc19c"/></g><g><path d="m12 10h18v24h-18z" fill="#69d6f4"/></g><g><path d="m59.43 40.57c-.95-.95-2.12-1.69-3.43-2.12-.87-.29-1.8-.45-2.77-.45h-1.23-4-4-4-4-4-4-17.23c-.97 0-1.9.16-2.77.45-3.48 1.16-6 4.45-6 8.32 0 .82.11 1.63.34 2.41l3.66 12.82h52l3.66-12.82c.23-.78.34-1.59.34-2.41 0-2.42-.98-4.61-2.57-6.2z" fill="#ffeaa7"/></g><g><path d="m54 28-2 .23-7 .81-11 1.27-4 .46-2 .23v3 4h25.23c.97 0 1.9.16 2.77.45v-10.45z" fill="#e6e9ed"/></g><g><path d="m48 34h4v4h-4z" fill="#aab2bd"/></g><g><path d="m40 34h4v4h-4z" fill="#aab2bd"/></g><g><path d="m32 34h4v4h-4z" fill="#aab2bd"/></g><g><path d="m53.23 44h-42.46c-1.53 0-2.77 1.24-2.77 2.77 0 .26.04.51.11.76l3.89 14.47h40l3.89-14.47c.07-.25.11-.5.11-.76 0-1.53-1.24-2.77-2.77-2.77z" fill="#69d6f4"/></g><g><path d="m47 13c0 2.59 1 4.85 2.5 6.06-.81 2.33-2.52 3.94-4.5 3.94-2.76 0-5-3.13-5-7s2.24-7 5-7c.91 0 1.77.34 2.5.94-.32.92-.5 1.96-.5 3.06z" fill="#b4dd7f"/></g><g><path d="m52 6c2.76 0 5 3.13 5 7s-2.24 7-5 7c-.91 0-1.77-.34-2.5-.94-1.5-1.21-2.5-3.47-2.5-6.06 0-1.1.18-2.14.5-3.06.81-2.33 2.52-3.94 4.5-3.94z" fill="#a0d468"/></g></g><path d="m62.623 49.457c.25-.872.377-1.776.377-2.686 0-4.052-2.479-7.534-6-9.013v-10.758h-3l-1 .115v-6.235c2.833-.638 5-3.924 5-7.88 0-4.411-2.691-8-6-8-2.055 0-3.871 1.386-4.952 3.492-.653-.313-1.342-.492-2.048-.492-3.309 0-6 3.589-6 8 0 3.956 2.167 7.242 5 7.88v4.272l-9 1.036v-22.188c1.103 0 2-.897 2-2v-2c0-1.103-.897-2-2-2h-28c-1.103 0-2 .897-2 2v2c0 1.103.897 2 2 2v30.759c-3.521 1.479-6 4.961-6 9.013 0 .91.127 1.813.376 2.685l3.298 11.543h-3.674v2h62v-2h-3.674zm-8.565-20.457h.942v8.169c-.575-.106-1.166-.169-1.771-.169h-.229v-4h-6v4h-2v-4h-6v4h-2v-4h-6v4h-2v-5.109zm-3.058 8h-2v-2h2zm-8 0h-2v-2h2zm-8 0h-2v-2h2zm-6-16h-4v-4h4zm-6 0h-4v-4h4zm0 2v4h-4v-4zm2 0h4v4h-4zm4-8h-4v-4h4zm-6 0h-4v-4h4zm-6 0h-4v-4h4zm-4 2h4v4h-4zm0 6h4v4h-4zm0 6h4v4h-4zm6 0h4v4h-4zm6 0h4v.879l-2 .23v2.891h-2zm27-22c2.168 0 4 2.748 4 6s-1.832 6-4 6-4-2.748-4-6 1.832-6 4-6zm-11 9c0-3.252 1.832-6 4-6 .463 0 .912.126 1.342.363-.218.827-.342 1.712-.342 2.637 0 2.561.911 4.839 2.319 6.304-.743 1.653-1.999 2.696-3.319 2.696-2.168 0-4-2.748-4-6zm5 7.882c1.625-.354 3.042-1.559 3.959-3.369.334.162.682.285 1.041.366v6.466l-5 .576zm-39-20.882h28l.001 2h-28.001zm2 4h24v22.418l-2 .23v-20.648h-20v26h16v2h-16.229c-.605 0-1.196.063-1.771.169zm-5.701 41.906c-.198-.693-.299-1.411-.299-2.135 0-4.285 3.486-7.771 7.771-7.771h42.457c4.286 0 7.772 3.486 7.772 7.771 0 .724-.101 1.441-.3 2.135l-3.455 12.094h-3.94l3.549-13.189c.096-.337.146-.686.146-1.04 0-2.079-1.691-3.771-3.771-3.771h-42.458c-2.08 0-3.771 1.692-3.771 3.771 0 .352.049.699.14 1.017l3.555 13.212h-3.94zm5.767-1.654c-.044-.154-.066-.315-.066-.481 0-.976.795-1.771 1.771-1.771h4.229v4h-5.463zm43.782 7.748h-3.848v-4h4.924zm-27.848-4h6v4h-6zm-2 4h-6v-4h6zm10-4h6v4h-6zm8 0h6v4h-6zm13.927-3.727-.465 1.727h-5.462v-4h4.229c.976 0 1.771.795 1.771 1.771 0 .166-.022.328-.073.502zm-7.927 1.727h-6v-4h6zm-8 0h-6v-4h6zm-8 0h-6v-4h6zm-8 0h-6v-4h6zm-8 2v4h-3.848l-1.077-4zm0 6v4h-2.233l-1.077-4zm2 0h6v4h-6zm8 0h6v4h-6zm8 0h6v4h-6zm8 0h6v4h-6zm8 0h3.31l-1.076 4h-2.234z"/></g></svg>