<?xml version="1.0" encoding="iso-8859-1"?>
<!-- Generator: Adobe Illustrator 19.0.0, SVG Export Plug-In . SVG Version: 6.00 Build 0)  -->
<svg version="1.1" id="Layer_1" xmlns="http://www.w3.org/2000/svg" xmlns:xlink="http://www.w3.org/1999/xlink" x="0px" y="0px"
	 viewBox="0 0 512 512" style="enable-background:new 0 0 512 512;" xml:space="preserve">
<rect x="40.971" y="155.036" style="fill:#DCEBEF;" width="430.057" height="279.882"/>
<rect x="40.971" y="155.036" style="fill:#CAD8DB;" width="430.057" height="28.443"/>
<rect x="81.931" y="231.825" style="fill:#54A6E2;" width="135.873" height="203.082"/>
<rect x="264.044" y="184.038" style="fill:#CDEFF7;" width="176.276" height="194.412"/>
<rect x="67.096" y="176.642" style="fill:#E54E5C;" width="165.535" height="47.784"/>
<g>
	<rect x="76.198" y="185.745" style="fill:#FD5D65;" width="147.331" height="29.58"/>
	<path style="fill:#FD5D65;" d="M440.312,184.045v190.009h-30.276c4.551-29.275,16.1-50.062,29.628-50.062
		c-21.288-0.819-39.287-42.257-45.705-99.556c-1.434-12.766-2.287-26.328-2.48-40.391L440.312,184.045L440.312,184.045z"/>
	<path style="fill:#FD5D65;" d="M264.685,323.991c13.528,0,25.077,20.787,29.628,50.062h-30.276V184.045h48.833
		c-0.193,14.063-1.047,27.625-2.48,40.391C303.972,281.734,285.973,323.172,264.685,323.991z"/>
</g>
<rect x="343.643" y="335.931" style="fill:#E2AD50;" width="17.067" height="42.519"/>
<path style="fill:#E54E5C;" d="M264.036,184.045h48.833c-0.193,14.063-1.047,27.625-2.48,40.391h-46.353V184.045z"/>
<rect x="304.993" y="330.811" style="fill:#FEC95B;" width="94.376" height="17.067"/>
<path style="fill:#E54E5C;" d="M440.312,184.045v40.391h-46.353c-1.434-12.766-2.287-26.328-2.48-40.391H440.312z"/>
<path style="fill:#54A6E2;" d="M447.706,385.85H256.643V176.648h191.064V385.85z M271.434,371.059h161.481v-179.62H271.434V371.059z
	"/>
<rect x="111.468" y="261.657" style="fill:#CDEFF7;" width="76.8" height="116.793"/>
<path style="fill:#4695C6;" d="M194.521,384.712h-89.312V255.4h89.312V384.712z M117.725,372.197h64.281v-104.28h-64.281V372.197z"
	/>
<rect y="426.373" style="fill:#616C7C;" width="512" height="17.067"/>
<polygon style="fill:#FD5D65;" points="497.51,157.302 14.49,157.302 40.97,68.56 471.029,68.56 "/>
<g>
	<polyline style="fill:#DCEBEF;" points="102.311,157.302 119.163,68.56 80.067,68.56 58.4,157.302 	"/>
	<polyline style="fill:#DCEBEF;" points="190.133,157.302 197.356,68.56 158.259,68.56 146.223,157.302 	"/>
	<polyline style="fill:#DCEBEF;" points="277.956,157.302 275.548,68.56 236.452,68.56 234.044,157.302 	"/>
	<polyline style="fill:#DCEBEF;" points="365.777,157.302 353.741,68.56 314.645,68.56 321.866,157.302 	"/>
	<polyline style="fill:#DCEBEF;" points="453.599,157.302 431.932,68.56 392.837,68.56 409.689,157.302 	"/>
</g>
<g>
</g>
<g>
</g>
<g>
</g>
<g>
</g>
<g>
</g>
<g>
</g>
<g>
</g>
<g>
</g>
<g>
</g>
<g>
</g>
<g>
</g>
<g>
</g>
<g>
</g>
<g>
</g>
<g>
</g>
</svg>
